<svg width="13" height="11" viewBox="0 0 13 11" fill="none" xmlns="http://www.w3.org/2000/svg">
<path d="M5.8935 10.3842L8.89433 7.38334C9.09475 7.18292 9.2085 6.90667 9.2085 6.61959L9.2085 1.20834C9.2085 0.612506 8.721 0.125005 8.12516 0.125005L3.25016 0.125005C2.81683 0.125005 2.42683 0.385005 2.2535 0.780421L0.487663 4.90251C0.0326628 5.97501 0.818079 7.16667 1.98266 7.16667L5.04308 7.16667L4.5285 9.64751C4.47433 9.91834 4.55558 10.1946 4.75058 10.3896C5.07016 10.7038 5.57933 10.7038 5.8935 10.3842ZM11.3752 0.125006C10.7793 0.125006 10.2918 0.612506 10.2918 1.20834L10.2918 5.54167C10.2918 6.13751 10.7793 6.62501 11.3752 6.62501C11.971 6.62501 12.4585 6.13751 12.4585 5.54167L12.4585 1.20834C12.4585 0.612506 11.971 0.125006 11.3752 0.125006Z" fill="#CD5444"/>
</svg>
