<svg width="14" height="26" viewBox="0 0 14 26" fill="none" xmlns="http://www.w3.org/2000/svg">
<path d="M12.5037 9.25005H9.5V6.75005C9.5 5.46005 9.605 4.64755 11.4537 4.64755H12.5387C13.2287 4.64755 13.7887 4.08755 13.7887 3.39755V1.83005C13.7887 1.1763 13.2875 0.617547 12.635 0.573797C11.88 0.522547 11.1237 0.498797 10.3662 0.500047C6.975 0.500047 4.5 2.5713 4.5 6.3738V9.25005H2C1.31 9.25005 0.75 9.81005 0.75 10.5V13C0.75 13.69 1.31 14.25 2 14.25L4.5 14.2488V24.25C4.5 24.9401 5.06 25.5 5.75 25.5H8.25C8.94 25.5 9.5 24.9401 9.5 24.25V14.2463L12.2175 14.245C12.8525 14.245 13.3862 13.7688 13.4587 13.1375L13.745 10.6425C13.8312 9.9013 13.2512 9.25005 12.5037 9.25005Z" fill="#76808C"/>
</svg>
