<svg width="22" height="22" viewBox="0 0 22 22" fill="none" xmlns="http://www.w3.org/2000/svg">
<path d="M10.9891 0.166656C5.00913 0.166656 0.166626 5.01999 0.166626 11C0.166626 16.98 5.00913 21.8333 10.9891 21.8333C16.98 21.8333 21.8333 16.98 21.8333 11C21.8333 5.01999 16.98 0.166656 10.9891 0.166656ZM14.4883 16.8392L11 14.7375L7.51163 16.8392C7.09996 17.0883 6.59079 16.72 6.69913 16.2542L7.61996 12.2892L4.55413 9.63499C4.19663 9.32082 4.39163 8.72499 4.86829 8.68166L8.91996 8.33499L10.5016 4.59749C10.6858 4.15332 11.3141 4.15332 11.4983 4.59749L13.08 8.32416L17.1316 8.67082C17.6083 8.71416 17.8033 9.30999 17.435 9.62416L14.3691 12.2783L15.29 16.2542C15.3983 16.72 14.9 17.0883 14.4883 16.8392Z" fill="#66C0F4"/>
</svg>
