<svg width="13" height="11" viewBox="0 0 13 11" fill="none" xmlns="http://www.w3.org/2000/svg">
<path d="M5.8935 0.615827L8.89433 3.61666C9.09475 3.81708 9.2085 4.09333 9.2085 4.38041V9.79166C9.2085 10.3875 8.721 10.875 8.12516 10.875H3.25016C2.81683 10.875 2.42683 10.615 2.2535 10.2196L0.487662 6.09749C0.0326624 5.02499 0.818079 3.83333 1.98266 3.83333H5.04308L4.5285 1.35249C4.47433 1.08166 4.55558 0.80541 4.75058 0.61041C5.07016 0.296243 5.57933 0.296243 5.8935 0.615827ZM11.3752 10.875C10.7793 10.875 10.2918 10.3875 10.2918 9.79166V5.45833C10.2918 4.86249 10.7793 4.37499 11.3752 4.37499C11.971 4.37499 12.4585 4.86249 12.4585 5.45833V9.79166C12.4585 10.3875 11.971 10.875 11.3752 10.875Z" fill="#66C0F4"/>
</svg>
