<svg width="13" height="16" viewBox="0 0 13 16" fill="none" xmlns="http://www.w3.org/2000/svg">
<path d="M10.7074 5.75H9.24992V1.16667C9.24992 0.6625 8.83742 0.25 8.33325 0.25H4.66658C4.16242 0.25 3.74992 0.6625 3.74992 1.16667V5.75H2.29242C1.47659 5.75 1.06409 6.74 1.64158 7.3175L5.84908 11.525C6.20658 11.8825 6.78408 11.8825 7.14158 11.525L11.3491 7.3175C11.9266 6.74 11.5233 5.75 10.7074 5.75ZM0.083252 14.9167C0.083252 15.4208 0.495752 15.8333 0.999919 15.8333H11.9999C12.5041 15.8333 12.9166 15.4208 12.9166 14.9167C12.9166 14.4125 12.5041 14 11.9999 14H0.999919C0.495752 14 0.083252 14.4125 0.083252 14.9167Z" fill="#0E141B"/>
</svg>
