<?xml version="1.0" encoding="UTF-8" standalone="no"?><!-- Generator: Gravit.io --><svg xmlns="http://www.w3.org/2000/svg" xmlns:xlink="http://www.w3.org/1999/xlink" style="isolation:isolate" viewBox="0 0 20 21" width="20pt" height="21pt"><defs><clipPath id="_clipPath_AJUNMbdJbhKXvzPNJSobsUzsg6usYEnX"><rect width="20" height="21"/></clipPath></defs><g clip-path="url(#_clipPath_AJUNMbdJbhKXvzPNJSobsUzsg6usYEnX)"><path d=" M 9.772 0 C 7.657 0 6.585 1.532 6.585 4.553 L 6.585 6.83 C 6.585 6.998 6.539 7.199 6.459 7.361 C 6.432 7.416 6.304 7.598 6.191 7.756 C 5.558 8.642 4.158 11.089 3.898 13.749 C 3.999 13.73 4.103 13.715 4.218 13.715 C 4.497 13.715 5.234 13.715 6.407 15.652 C 6.632 15.974 6.749 16.171 6.911 16.442 C 7.019 16.627 7.152 16.852 7.366 17.192 L 7.376 17.208 L 7.389 17.228 C 7.512 17.446 7.64 17.621 7.764 17.786 C 7.835 17.882 7.908 17.982 7.98 18.085 C 8.259 17.973 8.543 17.806 8.712 17.564 C 8.934 17.194 8.909 16.755 8.646 16.36 C 8.538 16.195 8.337 16.077 7.857 15.802 C 7.569 15.638 7.211 15.433 7.048 15.293 C 6.665 14.966 6.13 14.252 6.13 13.687 C 6.13 12.478 6.939 10.633 7.588 9.539 C 7.96 8.916 8.243 8.433 8.355 8.023 C 8.419 8.067 8.49 8.11 8.589 8.143 L 8.605 8.149 L 8.623 8.154 C 8.94 8.238 9.258 8.224 9.464 8.224 C 9.893 8.224 10.202 8.017 10.491 7.845 C 10.773 7.672 11.053 7.512 11.093 7.498 C 11.3 7.888 11.567 8.249 11.844 8.624 C 12.605 9.648 13.52 11.371 13.789 13.93 C 14.144 13.744 14.346 13.687 14.78 13.687 C 14.789 13.687 14.8 13.689 14.809 13.689 C 14.848 13.687 14.885 13.683 14.924 13.683 C 15.038 13.683 15.153 13.691 15.267 13.701 C 15.536 13.717 15.896 13.81 16.107 13.883 C 16.462 13.987 16.756 14.174 16.962 14.413 C 17.147 14.414 17.325 14.457 17.489 14.537 C 17.489 14.24 17.512 13.804 17.512 13.687 C 17.512 12.185 16.527 10.111 15.785 9.047 C 15.632 8.826 15.484 8.62 15.342 8.423 C 14.686 7.514 14.166 6.795 13.87 5.558 C 13.674 4.754 13.647 4.505 13.621 4.265 C 13.596 4.023 13.567 3.771 13.405 3.091 C 13.11 1.715 12.746 0 9.772 0 L 9.772 0 Z  M 8.406 2.732 C 8.909 2.732 9.317 3.648 9.317 4.403 C 9.317 4.45 9.311 4.523 9.308 4.589 C 9.274 4.587 9.24 4.581 9.205 4.581 C 9.075 4.581 8.954 4.601 8.838 4.632 C 8.784 4.341 8.616 4.126 8.406 4.126 C 8.156 4.126 7.951 4.432 7.951 4.809 C 7.951 4.901 7.963 4.989 7.987 5.069 C 7.864 5.161 7.77 5.239 7.714 5.294 L 7.672 5.332 C 7.638 5.259 7.608 5.184 7.585 5.108 C 7.533 4.789 7.496 4.404 7.496 4.404 C 7.496 3.648 7.903 2.733 8.406 2.733 L 8.406 2.732 Z  M 10.683 2.732 C 11.186 2.732 11.593 3.648 11.593 4.403 C 11.593 4.685 11.533 5.015 11.435 5.277 C 11.316 5.226 11.193 5.184 11.067 5.152 C 11.108 5.051 11.138 4.937 11.138 4.809 C 11.138 4.432 10.933 4.126 10.683 4.126 C 10.432 4.126 10.227 4.432 10.227 4.809 L 10.227 4.815 C 10.084 4.755 9.936 4.705 9.786 4.665 C 9.779 4.578 9.774 4.491 9.772 4.403 C 9.772 3.648 10.18 2.732 10.683 2.732 Z  M 9.205 5.492 C 9.39 5.492 9.658 5.565 9.904 5.665 C 10.15 5.764 10.357 5.874 10.532 5.947 L 10.567 5.963 L 10.604 5.97 C 10.836 6.025 11.044 6.084 11.129 6.128 C 11.106 6.324 11.083 6.431 11.072 6.447 C 11.06 6.467 10.995 6.527 10.762 6.652 C 10.475 6.754 10.256 6.922 10.021 7.064 C 9.763 7.219 9.502 7.313 9.464 7.313 C 9.265 7.313 8.99 7.299 8.879 7.276 C 8.922 7.288 8.847 7.251 8.753 7.164 C 8.652 7.068 8.526 6.936 8.397 6.8 L 8.364 6.765 L 8.328 6.74 C 8.182 6.637 8.069 6.545 8.013 6.479 C 7.957 6.412 7.951 6.392 7.951 6.347 C 7.951 6.28 7.939 6.321 7.98 6.274 C 8.021 6.226 8.145 6.128 8.314 5.979 L 8.33 5.967 L 8.344 5.951 C 8.319 5.977 8.485 5.816 8.664 5.698 C 8.844 5.581 9.066 5.492 9.205 5.492 Z  M 14.924 14.596 C 14.499 14.596 14.204 14.722 14.124 14.823 C 14.309 15.037 14.423 15.243 14.54 15.616 C 14.666 15.894 14.983 15.963 15.235 15.963 C 16.007 15.963 16.156 15.499 16.4 15.238 C 16.4 15.238 16.336 15.167 16.336 15.097 C 16.273 14.959 16.084 14.82 15.831 14.75 C 15.641 14.681 15.324 14.612 15.198 14.612 C 15.107 14.6 15.016 14.595 14.924 14.596 Z  M 4.218 14.626 C 3.901 14.626 3.745 14.782 3.534 14.994 C 3.322 15.204 3.098 15.531 2.728 15.794 C 2.403 16.218 1.43 15.81 1.151 16.447 C 0.996 16.796 1.528 17.254 1.528 18.042 C 1.528 18.359 1.263 18.569 1.211 18.78 C 1.157 19.042 1.104 19.2 1.211 19.41 C 1.421 19.725 1.686 19.831 3.48 20.197 C 4.43 20.41 5.328 20.936 5.908 20.987 C 6.487 21.039 7.49 20.987 7.49 19.568 C 7.544 18.727 7.069 18.517 6.594 17.676 C 6.066 16.833 6.014 16.676 5.645 16.15 C 5.328 15.624 4.641 14.626 4.218 14.626 L 4.218 14.626 Z  M 13.521 15.535 C 13.414 15.748 13.414 15.91 13.414 16.447 C 13.414 16.877 13.414 17.361 13.361 17.738 C 13.253 18.652 12.959 19.063 12.959 19.6 C 12.959 20.192 13.121 20.57 13.336 20.731 C 13.496 20.893 13.766 21 14.359 21 C 14.949 21 15.326 20.785 15.703 20.41 C 15.972 20.139 16.187 20.033 16.941 19.493 C 17.531 19.117 18.447 18.633 18.608 18.473 C 18.716 18.364 18.878 18.309 18.878 17.986 C 18.878 17.717 18.662 17.61 18.501 17.557 C 18.285 17.448 17.91 17.286 17.586 16.803 C 17.446 16.57 17.467 15.971 17.298 15.605 L 17.066 15.857 C 17.038 15.885 17.016 15.922 16.989 15.956 C 16.768 16.255 16.309 16.874 15.235 16.874 C 14.531 16.874 13.962 16.545 13.711 15.992 L 13.688 15.942 L 13.67 15.887 C 13.614 15.706 13.567 15.608 13.521 15.535 Z  M 12.278 18.444 C 11.844 18.817 11.181 19.179 10.227 19.179 C 9.258 19.179 8.604 18.821 8.188 18.455 C 8.332 18.757 8.428 19.117 8.401 19.596 C 8.401 19.769 8.385 19.933 8.36 20.089 L 12.086 20.089 C 12.062 19.927 12.05 19.764 12.049 19.6 C 12.049 19.198 12.148 18.871 12.246 18.554 C 12.257 18.518 12.267 18.479 12.278 18.444 L 12.278 18.444 Z " fill="rgb(118,128,140)"/></g></svg>