<svg width="21" height="22" viewBox="0 0 21 22" fill="none" xmlns="http://www.w3.org/2000/svg">
<path d="M1.13831 0.5C0.38348 0.5 -0.0589785 1.35023 0.372688 1.96973L7.35902 11.9548L0.345344 20.1533C-0.108489 20.683 0.267469 21.5 0.965136 21.5H1.73988C2.08171 21.5 2.40688 21.35 2.62855 21.0898L8.73988 13.9303L13.3405 20.5042C13.778 21.1272 14.4916 21.5 15.2522 21.5H19.1419C19.8967 21.5 20.3392 20.6509 19.9075 20.0326L12.5361 9.48242L19.2171 1.65527C19.6044 1.20027 19.2812 0.5 18.6839 0.5H17.6972C17.3566 0.5 17.0325 0.648878 16.8108 0.907878L11.1621 7.51139L6.96025 1.49805C6.52392 0.872713 5.81147 0.5 5.04847 0.5H1.13831Z" fill="#76808C"/>
</svg>
