<svg width="20" height="21" viewBox="0 0 20 21" fill="none" xmlns="http://www.w3.org/2000/svg">
<path d="M17.3893 0.085343C17.2383 0.0783118 17.0859 0.087524 16.9336 0.113826L10.8626 1.17177C10.3637 1.25927 10 1.69091 10 2.19716V8.41664C10 8.99164 10.4667 9.45831 11.0417 9.45831H18.3333C18.9083 9.45831 19.375 8.99164 19.375 8.41664V2.16664C19.375 1.54998 19.1043 0.968465 18.6324 0.57159C18.2785 0.273934 17.8423 0.106437 17.3893 0.085343ZM6.93197 1.88385C6.855 1.87983 6.77565 1.88416 6.69596 1.89809L2.35026 2.65492C1.35339 2.82888 0.625 3.69524 0.625 4.70774V8.41664C0.625 8.99164 1.09167 9.45831 1.66667 9.45831H6.875C7.45 9.45831 7.91667 8.99164 7.91667 8.41664V2.92348C7.91667 2.35746 7.47069 1.91193 6.93197 1.88385ZM1.66667 11.5416C1.09167 11.5416 0.625 12.0083 0.625 12.5833V16.2922C0.625 17.3047 1.35234 18.1711 2.35026 18.345L6.69596 19.1019C7.33346 19.2123 7.91667 18.7233 7.91667 18.0765V12.5833C7.91667 12.0083 7.45 11.5416 6.875 11.5416H1.66667ZM11.0417 11.5416C10.4667 11.5416 10 12.0083 10 12.5833V18.8028C10 19.309 10.3637 19.7417 10.8626 19.8282L16.9336 20.8861C17.0534 20.907 17.1739 20.9187 17.2937 20.9187C17.7802 20.9187 18.2532 20.7471 18.6324 20.4284C19.1043 20.0304 19.375 19.4489 19.375 18.8333V12.5833C19.375 12.0083 18.9083 11.5416 18.3333 11.5416H11.0417Z" fill="#76808C"/>
</svg>
